<?xml version="1.0" standalone="no"?><!DOCTYPE svg PUBLIC "-//W3C//DTD SVG 1.1//EN" "http://www.w3.org/Graphics/SVG/1.1/DTD/svg11.dtd"><svg t="1723343254794" class="icon" viewBox="0 0 4816 1024" version="1.1" xmlns="http://www.w3.org/2000/svg" p-id="1663" width="301" height="64" xmlns:xlink="http://www.w3.org/1999/xlink"><path d="M1472.663704 460.534519v204.534518c0 14.184296-3.375407 24.879407-10.126223 32.161185a33.488593 33.488593 0 0 1-25.637925 10.884741 31.971556 31.971556 0 0 1-25.296593-11.150222c-6.447407-7.433481-9.709037-18.052741-9.709037-31.857778v-202.524444c0-13.994667 3.223704-24.538074 9.709037-31.630223a32.654222 32.654222 0 0 1 25.296593-10.619259c10.353778 0 18.925037 3.527111 25.637925 10.619259 6.750815 7.092148 10.126222 16.952889 10.126223 29.582223z m-35.00563-73.121186a37.357037 37.357037 0 0 1-25.258667-9.102222c-7.016296-6.030222-10.505481-14.601481-10.505481-25.637926 0-10.012444 3.565037-18.280296 10.770963-24.765629a36.181333 36.181333 0 0 1 25.031111-9.709037c9.102222 0 17.256296 2.920296 24.348444 8.798814 7.092148 5.878519 10.619259 14.411852 10.61926 25.675852 0 10.884741-3.451259 19.380148-10.353778 25.524148a35.877926 35.877926 0 0 1-24.651852 9.216z m213.371259-26.168889l148.062815 223.990519V359.158519c0-14.715259 3.147852-25.713778 9.443556-33.071408 6.295704-7.35763 14.791111-10.998519 25.524148-10.998518 11.07437 0 19.797333 3.640889 26.168889 10.998518 6.447407 7.35763 9.633185 18.356148 9.633185 33.071408v298.932148c0 33.374815-13.842963 50.024296-41.490963 50.024296-6.902519 0-13.12237-0.986074-18.659556-2.996148a47.407407 47.407407 0 0 1-15.549629-9.481482 92.16 92.16 0 0 1-13.50163-15.17037c-4.171852-5.764741-8.305778-11.681185-12.439704-17.711407l-144.421925-221.411556v222.701037c0 14.52563-3.337481 25.486222-10.088297 32.919704a33.412741 33.412741 0 0 1-25.941333 11.150222 33.033481 33.033481 0 0 1-26.168889-11.264c-6.561185-7.547259-9.860741-18.469926-9.860741-32.805926V370.801778c0-12.439704 1.365333-22.186667 4.171852-29.278815 3.26163-7.774815 8.722963-14.14637 16.308148-19.076741 7.585185-4.93037 15.815111-7.35763 24.651852-7.357629 6.902519 0 12.818963 1.137778 17.749333 3.337481 4.93037 2.275556 9.253926 5.30963 12.970667 9.102222 3.716741 3.792593 7.509333 8.722963 11.377778 14.791111 3.90637 6.030222 7.926519 12.325926 12.060444 18.887112z m403.418074 0l148.024889 223.990519V359.158519c0-14.715259 3.147852-25.713778 9.481482-33.071408 6.295704-7.35763 14.791111-10.998519 25.524148-10.998518 11.07437 0 19.797333 3.640889 26.168889 10.998518 6.447407 7.35763 9.595259 18.356148 9.595259 33.071408v298.932148c0 33.374815-13.805037 50.024296-41.453037 50.024296-6.940444 0-13.160296-0.986074-18.659556-2.996148a47.407407 47.407407 0 0 1-15.549629-9.481482 92.16 92.16 0 0 1-13.50163-15.17037 1053.582222 1053.582222 0 0 1-12.439703-17.711407l-144.421926-221.411556v222.701037c0 14.52563-3.375407 25.486222-10.088297 32.919704a33.412741 33.412741 0 0 1-25.941333 11.150222 33.033481 33.033481 0 0 1-26.168889-11.264c-6.599111-7.547259-9.860741-18.469926-9.860741-32.805926V370.801778c0-12.439704 1.365333-22.186667 4.171852-29.278815 3.26163-7.774815 8.722963-14.14637 16.308148-19.076741 7.585185-4.93037 15.815111-7.35763 24.651852-7.357629 6.902519 0 12.818963 1.137778 17.711408 3.337481 4.93037 2.275556 9.253926 5.30963 12.970666 9.102222 3.716741 3.792593 7.547259 8.722963 11.415704 14.791111 3.90637 6.030222 7.926519 12.325926 12.060444 18.887112z m470.281482-46.155851c39.442963 0 73.234963 7.964444 101.527704 23.969185a155.45837 155.45837 0 0 1 64.13274 68.190815c14.52563 29.468444 21.807407 64.094815 21.807408 103.841185 0 29.354667-3.982222 56.054519-11.946667 80.099555a173.321481 173.321481 0 0 1-35.764148 62.464c-15.928889 17.635556-35.422815 31.099259-58.595556 40.466963-23.134815 9.329778-49.682963 13.994667-79.606518 13.994667-29.733926 0-56.32-4.816593-79.834074-14.411852a158.378667 158.378667 0 0 1-58.861037-40.580741 173.321481 173.321481 0 0 1-35.650371-62.957037 254.331259 254.331259 0 0 1-12.060444-79.644444c0-29.202963 4.171852-55.978667 12.591407-80.327111 8.343704-24.38637 20.517926-45.131852 36.408889-62.198519 15.928889-17.142519 35.271111-30.226963 58.102519-39.291259 22.793481-9.102222 48.734815-13.653333 77.748148-13.653333z m109.416296 195.470222c0-27.83763-4.475259-51.958519-13.463704-72.324741-8.988444-20.404148-21.845333-35.84-38.53274-46.26963-16.687407-10.467556-35.802074-15.701333-57.419852-15.701333-15.36 0-29.582222 2.88237-42.628741 8.685037a93.677037 93.677037 0 0 0-33.716148 25.258667c-9.40563 11.07437-16.839111 25.220741-22.300444 42.401185a191.525926 191.525926 0 0 0-8.154075 57.950815c0 21.617778 2.730667 41.14963 8.154075 58.595555 5.461333 17.445926 13.160296 31.93363 23.096888 43.425186 9.936593 11.491556 21.31437 20.100741 34.209186 25.789629 12.894815 5.688889 27.003259 8.571259 42.401185 8.571259 19.721481 0 37.812148-4.93037 54.309926-14.791111 16.497778-9.860741 29.620148-25.031111 39.405037-45.624889 9.746963-20.555852 14.639407-45.89037 14.639407-75.965629z m200.135111-144.914963l86.091852 254.862222 86.319408-256.682667c4.513185-13.50163 7.888593-22.869333 10.126222-28.141037a37.470815 37.470815 0 0 1 11.150222-14.260148c5.195852-4.247704 12.250074-6.33363 21.238519-6.333629 6.599111 0 12.667259 1.630815 18.280296 4.93037a36.257185 36.257185 0 0 1 13.236148 13.084444 32.237037 32.237037 0 0 1 4.778667 16.459852c0 3.792593-0.493037 7.888593-1.517037 12.325926a111.881481 111.881481 0 0 1-3.906371 12.932741c-1.554963 4.247704-3.109926 8.609185-4.664889 13.12237l-92.046222 248.338963c-3.299556 9.519407-6.561185 18.583704-9.860741 27.117037a114.536296 114.536296 0 0 1-11.377777 22.528c-4.323556 6.485333-10.088296 11.794963-17.256297 15.928889-7.205926 4.171852-15.928889 6.257778-26.320592 6.257778-10.353778 0-19.152593-2.048-26.320593-6.068148a50.062222 50.062222 0 0 1-17.370074-16.118519 118.59437 118.59437 0 0 1-11.529481-22.679703c-3.299556-8.457481-6.561185-17.445926-9.860741-26.927408l-90.453334-246.328889a470.433185 470.433185 0 0 0-4.816592-13.198222 102.513778 102.513778 0 0 1-4.171852-14.032593 59.809185 59.809185 0 0 1-1.668741-12.705185c0-8.798815 3.565037-16.839111 10.61926-24.082963a35.764148 35.764148 0 0 1 26.737777-10.88474c13.12237 0 22.376296 4.020148 27.875556 12.022518 5.423407 8.040296 10.998519 20.859259 16.687407 38.532741z m552.239408 292.939852l-18.166519-47.710815H3213.842963l-18.128593 48.772741c-7.092148 18.962963-13.160296 31.857778-18.166518 38.494814-5.006222 6.637037-13.198222 9.974519-24.651852 9.974519a36.105481 36.105481 0 0 1-25.637926-10.619259c-7.433481-7.092148-11.150222-15.17037-11.150222-24.120889 0-5.195852 0.872296-10.543407 2.578963-16.080593 1.744593-5.537185 4.589037-13.236148 8.571259-23.058963l97.242074-246.821926c2.730667-7.092148 6.068148-15.587556 9.974519-25.524148 3.868444-9.974519 8.040296-18.204444 12.439703-24.765629 4.399407-6.599111 10.202074-11.908741 17.370074-15.928889 7.168-4.096 16.042667-6.106074 26.548149-6.106074 10.733037 0 19.683556 2.010074 26.851555 6.068148 7.205926 4.058074 12.970667 9.291852 17.370074 15.701333a109.985185 109.985185 0 0 1 11.150222 20.593778c3.034074 7.35763 6.864593 17.180444 11.529482 29.430518l99.290074 245.266963c7.774815 18.659556 11.681185 32.237037 11.681185 40.694519 0 8.836741-3.678815 16.914963-10.998518 24.272592a36.219259 36.219259 0 0 1-26.586074 10.998519 34.436741 34.436741 0 0 1-15.54963-3.26163 31.857778 31.857778 0 0 1-10.922667-8.798814 81.08563 81.08563 0 0 1-9.443555-17.104593 1002.609778 1002.609778 0 0 1-8.685037-20.366222z m-152.462223-105.509926h113.588149l-57.306074-156.86163-56.282075 156.86163z m537.97926-168.011852h-84.005926v276.100741c0 15.928889-3.527111 27.685926-10.619259 35.422814a35.65037 35.65037 0 0 1-27.496297 11.529482 36.181333 36.181333 0 0 1-27.875555-11.681185c-7.168-7.774815-10.733037-19.531852-10.733037-35.271111v-276.100741h-84.005926c-13.12237 0-22.907259-2.88237-29.316741-8.685037a29.468444 29.468444 0 0 1-9.595259-22.945185c0-9.860741 3.337481-17.635556 10.012444-23.324445 6.637037-5.688889 16.308148-8.533333 28.899556-8.533333h244.736c13.274074 0 23.210667 2.920296 29.696 8.798815 6.447407 5.878519 9.709037 13.577481 9.709037 23.058963 0 9.519407-3.299556 17.180444-9.860741 22.945185-6.561185 5.802667-16.421926 8.722963-29.544296 8.722963z m88.139852 276.100741V361.775407c0-15.54963 3.565037-27.230815 10.619259-35.005629a35.460741 35.460741 0 0 1 27.496296-11.643259c11.567407 0 20.973037 3.830519 28.141037 11.529481 7.168 7.698963 10.770963 19.380148 10.770963 35.119407v299.463112c0 15.701333-3.602963 27.45837-10.770963 35.271111a36.484741 36.484741 0 0 1-28.141037 11.643259 35.384889 35.384889 0 0 1-27.344592-11.794963c-7.205926-7.850667-10.770963-19.569778-10.770963-35.119407z m330.334814-346.074074c39.367111 0 73.197037 7.964444 101.451852 23.969185a155.45837 155.45837 0 0 1 64.170667 68.190815c14.52563 29.468444 21.807407 64.094815 21.807407 103.841185 0 29.354667-3.982222 56.054519-11.946666 80.099555a173.321481 173.321481 0 0 1-35.764148 62.464c-15.928889 17.635556-35.422815 31.099259-58.595556 40.466963-23.134815 9.329778-49.682963 13.994667-79.606519 13.994667-29.733926 0-56.32-4.816593-79.834074-14.411852a158.378667 158.378667 0 0 1-58.861037-40.580741 173.321481 173.321481 0 0 1-35.65037-62.957037 254.331259 254.331259 0 0 1-12.060444-79.644444c0-29.202963 4.171852-55.978667 12.591407-80.327111 8.343704-24.38637 20.48-45.131852 36.408889-62.198519 15.928889-17.142519 35.271111-30.226963 58.064592-39.291259 22.831407-9.102222 48.772741-13.653333 77.786074-13.653333z m109.378371 195.470222c0-27.83763-4.513185-51.958519-13.463704-72.324741-8.988444-20.404148-21.845333-35.84-38.532741-46.26963-16.687407-10.467556-35.802074-15.701333-57.419852-15.701333-15.36 0-29.582222 2.88237-42.62874 8.685037a93.677037 93.677037 0 0 0-33.716148 25.258667c-9.40563 11.07437-16.839111 25.220741-22.300445 42.401185a191.525926 191.525926 0 0 0-8.154074 57.950815c0 21.617778 2.730667 41.14963 8.154074 58.595555 5.461333 17.445926 13.12237 31.93363 23.096889 43.425186 9.936593 11.491556 21.31437 20.100741 34.209185 25.789629 12.894815 5.688889 27.003259 8.571259 42.401185 8.571259 19.721481 0 37.774222-4.93037 54.309926-14.791111 16.497778-9.860741 29.620148-25.031111 39.405037-45.624889 9.746963-20.555852 14.639407-45.89037 14.639408-75.965629z m244.242963-149.352296l148.024889 224.028444V359.158519c0-14.715259 3.147852-25.713778 9.481481-33.071408 6.295704-7.35763 14.791111-10.998519 25.524148-10.998518 11.036444 0 19.759407 3.640889 26.168889 10.998518 6.409481 7.35763 9.595259 18.356148 9.595259 33.071408v298.932148c0 33.374815-13.842963 50.024296-41.490963 50.024296-6.902519 0-13.12237-0.986074-18.659555-2.996148a47.407407 47.407407 0 0 1-15.54963-9.481482 92.16 92.16 0 0 1-13.501629-15.17037c-4.133926-5.764741-8.267852-11.681185-12.439704-17.711407l-144.384-221.411556v222.701037c0 14.52563-3.413333 25.486222-10.126222 32.919704a33.412741 33.412741 0 0 1-25.941334 11.150222 33.033481 33.033481 0 0 1-26.168889-11.264c-6.561185-7.547259-9.860741-18.469926-9.86074-32.805926V370.801778c0-12.439704 1.403259-22.186667 4.171852-29.278815 3.26163-7.774815 8.722963-14.14637 16.308148-19.076741 7.585185-4.93037 15.815111-7.35763 24.651852-7.357629 6.902519 0 12.818963 1.137778 17.749333 3.337481 4.93037 2.275556 9.253926 5.30963 12.970667 9.102222 3.716741 3.792593 7.509333 8.722963 11.377777 14.791111 3.90637 6.030222 7.964444 12.325926 12.060445 18.887112zM720.554667 80.782222c304.469333 14.601481 481.09037 229.831111 395.112296 484.086519-86.774519 256.758519-408.348444 456.059259-718.241185 445.25037l22.603852-66.901333C115.560296 928.616296-61.060741 713.386667 24.917333 459.131259 111.578074 202.752 432.431407 3.602963 741.906963 13.842963l1.251556 0.037926L720.592593 80.782222zM314.633481 492.73363v207.075555c0 9.443556 0.303407 16.308148 0.910223 20.631704 0.568889 4.323556 2.275556 9.481481 5.006222 15.36 5.499259 10.619259 20.631704 15.928889 45.435259 15.928889 25.144889 0 40.315259-5.12 45.397334-15.36 3.147852-5.878519 5.044148-11.112296 5.613037-15.625482 0.606815-4.551111 0.910222-11.301926 0.910222-20.366222v-206.468741c0-7.471407-0.227556-13.160296-0.606815-17.104592-0.379259-11.377778-3.944296-19.873185-10.619259-25.372445-7.850667-6.674963-21.238519-10.012444-40.12563-10.012444-25.182815 0-40.504889 5.082074-46.004148 15.322074a54.689185 54.689185 0 0 0-5.006222 15.625481c-0.606815 4.551111-0.910222 11.301926-0.910223 20.366223z m96.749038-109.150815c3.147852-5.878519 5.044148-11.112296 5.613037-15.625482 0.606815-4.551111 0.910222-11.301926 0.910222-20.366222 0-9.02637-0.303407-15.815111-0.910222-20.328296a47.255704 47.255704 0 0 0-5.613037-15.663408c-5.082074-10.619259-20.024889-15.928889-44.828445-15.928888-25.182815 0-40.504889 5.30963-46.004148 15.928888a48.165926 48.165926 0 0 0-5.006222 15.056593c-0.606815 4.551111-0.910222 11.301926-0.910223 20.366222 0 9.02637 0.303407 15.815111 0.910223 20.328297 0.568889 4.551111 2.351407 9.746963 5.309629 15.663407a24.727704 24.727704 0 0 0 15.625482 12.363852c7.471407 2.351407 17.408 3.565037 29.771852 3.565037 12.401778 0 22.33837-1.21363 29.809777-3.565037 7.471407-2.351407 12.591407-6.295704 15.322075-11.757037z m332.762074-46.004148c-3.565037 6.674963-5.30963 17.483852-5.30963 32.426666v199.414519c-27.951407-36.181333-83.399111-110.743704-166.381037-223.573333-7.471407-9.064296-11.984593-14.184296-13.577482-15.36-2.730667-2.768593-7.585185-5.195852-14.411851-7.35763-6.902519-2.161778-16.270222-3.26163-28.065186-3.26163-11.757037 0-21.428148 1.175704-28.899555 3.527111a28.065185 28.065185 0 0 0-16.801185 13.880889c-3.754667 6.864593-5.613037 17.825185-5.613037 32.730074v329.197037c0 9.064296 0.303407 15.928889 0.872296 20.66963 0.606815 4.702815 2.465185 10.012444 5.613037 15.928889 5.499259 10.619259 20.48 15.928889 44.828444 15.928889 25.182815 0 40.504889-5.30963 46.042074-15.928889 3.147852-5.916444 5.006222-10.998519 5.575112-15.36a170.287407 170.287407 0 0 0 0.910222-20.631704v-194.104889a27111.727407 27111.727407 0 0 1 174.610963 231.272297 34.474667 34.474667 0 0 0 14.791111 11.188148c5.878519 2.389333 16.497778 3.565037 31.857778 3.565037 25.144889 0 40.466963-5.30963 45.966222-15.928889 3.147852-5.916444 5.044148-10.998519 5.613037-15.36a170.287407 170.287407 0 0 0 0.910222-20.631704V372.394667c0-13.767111-1.21363-23.817481-3.565037-30.113186a24.082963 24.082963 0 0 0-7.35763-12.363851 43.008 43.008 0 0 0-15.36-7.092149 101.717333 101.717333 0 0 0-27.117037-2.958222 94.435556 94.435556 0 0 0-28.065185 3.527111 29.013333 29.013333 0 0 0-17.066666 14.184297z" fill="#005CFF" p-id="1664"></path></svg>