<?xml version="1.0" standalone="no"?><!DOCTYPE svg PUBLIC "-//W3C//DTD SVG 1.1//EN" "http://www.w3.org/Graphics/SVG/1.1/DTD/svg11.dtd"><svg t="1723341139286" class="icon" viewBox="0 0 2976 1024" version="1.1" xmlns="http://www.w3.org/2000/svg" p-id="4326" width="744" height="256" xmlns:xlink="http://www.w3.org/1999/xlink"><path d="M2819.104 992.512h33.888V653.088h-33.888v339.424z m-192.64-107.392c-28.032 0-47.616 0.512-58.848 1.632s-19.136 3.136-23.84 6.112c-8.928 5.76-13.408 16.448-13.408 32.064 0 15.424 5.312 25.856 15.904 31.36 8.672 4.48 37.696 6.688 87.2 6.688 36.192 0 60.16-2.528 71.744-7.712 11.712-5.184 17.536-15.616 17.536-31.392 0-15.168-6.528-25.504-19.52-30.784-13.024-5.312-38.624-7.968-76.768-7.968z m-87.168-57.504h-35.392a166.208 166.208 0 0 1-0.448-10.272c0-24.768 8.448-41.6 25.376-50.56 16.96-9.024 48.736-13.504 95.328-13.504 36.64 0 62.944 1.92 78.976 5.536s28.576 10.624 37.728 20.864c7.52 8.32 12.48 18.048 14.72 29.44 2.24 11.296 3.392 30.944 3.392 59.2v124.16h-33.888l0.672-27.552h-1.824c-8.448 12.96-18.624 21.28-30.56 25.024-11.808 3.712-34.208 5.568-67.2 5.568-37.664 0-63.84-0.992-78.528-2.976s-25.824-6.08-33.28-12.416a46.88 46.88 0 0 1-15.808-21.312c-2.976-8.32-4.384-19.84-4.384-34.752 0-18.24 2.24-32.256 6.656-41.984 4.48-9.76 12-17.056 22.592-21.824 11.456-5.504 38.336-8.224 80.544-8.224 44.128 0 73.056 1.44 86.656 4.32s24.064 9.856 31.52 20.96h2.944v-25.376c0-20.864-3.424-35.872-10.24-45.024-6.016-8.224-15.232-13.696-27.552-16.608-12.32-2.944-32.448-4.416-60.48-4.416-36.768 0-60.576 2.4-71.328 7.104-10.816 4.832-16.256 15.264-16.256 31.296 0 0.864 0.096 1.952 0.096 3.328z m-129.216 23.424c-0.128-23.104-5.696-39.104-16.8-48.256-7.264-6.08-17.408-10.368-30.496-12.704-13.12-2.464-32.288-3.68-57.568-3.68-22.048 0-38.848 1.12-50.464 3.424-11.552 2.208-20.608 6.08-27.104 11.808-10.688 9.088-16.896 25.6-18.624 49.44h201.024z m1.568 68.672h35.648c-0.608 28.128-9.664 47.84-27.168 59.008-17.6 11.2-48.128 16.768-91.616 16.768-36 0-63.328-1.536-81.984-4.576-18.688-3.072-32.768-8.224-42.304-15.488-21.728-16.896-32.672-50.304-32.672-100.192 0-34.944 4.64-61.12 13.856-78.688 8.768-16.736 21.376-28.096 37.952-33.952s44.224-8.8 82.976-8.8c36.992 0 63.776 2.112 80.224 6.432 16.48 4.32 29.632 12.672 39.488 24.864 8.096 10.272 13.76 22.208 16.8 35.776 3.04 13.664 4.64 34.336 4.96 62.176h-239.84c0.928 29.312 6.24 49.536 15.904 60.48 6.496 7.456 16.96 12.544 31.2 15.328 14.336 2.72 37.536 4.064 69.76 4.064 24.384 0 42.24-1.28 53.6-3.712 11.296-2.528 19.744-7.104 25.408-13.728 4.16-5.184 6.88-13.824 7.872-25.76z m-606.112-97.184h151.712c40.256 0 66.144-0.64 77.44-1.888 11.36-1.248 20.608-4.416 27.744-9.344 10.592-7.712 15.84-26.464 15.84-56.384 0-25.792-4.96-42.592-14.784-50.24-6.368-4.992-16.288-8.224-29.824-9.728-13.568-1.44-39.072-2.208-76.448-2.208h-151.712v129.76z m-41.344 169.952V653.088h193.056c52.416 0.64 85.888 2.016 100.416 4.224 25.568 3.648 43.296 16.288 53.152 37.824 6.496 14.496 9.76 34.624 9.76 60.544 0 19.584-1.024 34.528-2.944 44.704-2.016 10.144-5.504 18.368-10.528 24.48-7.968 9.856-20.608 16.736-37.792 20.672 13.312 2.464 23.936 8.16 31.808 16.896 5.888 6.944 9.664 15.2 11.36 24.736 1.664 9.664 2.496 28.704 2.496 57.088v48.192h-41.344v-32.48c0-27.648-0.512-46.72-1.632-57.344-3.008-21.568-14.112-34.08-33.28-37.76-7.584-1.088-14.336-1.856-20.288-2.112s-26.304-0.416-61.152-0.608h-151.712v130.272h-41.344z m-68.512-38.688v38.688H1353.312a665.728 665.728 0 0 1-1.024-36.736c0-36.608 3.584-62.112 10.688-76.736 5.6-11.424 13.12-20.288 22.56-26.432 9.44-6.208 22.56-11.04 39.2-14.528 12.672-2.528 47.072-5.568 103.232-9.216 35.2-2.176 59.488-4.096 72.704-5.792 13.248-1.76 23.456-4.416 30.496-7.872 8.544-4.032 14.688-10.336 18.432-18.752 3.808-8.32 5.696-19.648 5.696-34.08 0-30.592-7.232-49.952-21.568-57.92-14.72-8.064-51.104-12.16-109.344-12.16-20.128 0-40.16 0.768-60.288 2.368-20.032 1.536-33.664 3.424-40.96 5.6-8.448 2.464-14.88 6.464-19.264 12.064-4.352 5.504-7.136 13.312-8.352 23.392-0.928 6.112-1.408 21.888-1.568 47.168h-39.264c0-29.536 0.96-50.304 2.976-62.24 1.92-12.064 5.984-22.56 12-31.488 6.496-9.344 14.24-16.448 23.232-21.504 8.992-4.992 20.448-8.672 34.368-10.784 20.736-3.168 47.072-4.736 79.136-4.736 21.824 0 46.144 0.768 73.152 2.368 27.04 1.536 45.408 3.328 55.232 5.344 12 2.112 22.464 6.848 31.52 14.24 9.152 7.36 15.712 16.352 19.744 26.976 4.864 12.672 7.296 31.296 7.296 55.968 0 20.704-1.728 36.896-5.152 48.416a66.176 66.176 0 0 1-18.048 29.856 81.728 81.728 0 0 1-29.504 17.632c-11.296 3.968-27.104 6.944-47.36 8.992a2810.88 2810.88 0 0 1-130.624 9.408c-21.184 1.376-36.48 4.16-45.856 8.512a35.104 35.104 0 0 0-19.296 22.016c-2.688 7.968-4.096 25.28-4.256 52h302.4z m-672.512-300.704h33.92v138.656h2.72c7.296-14.72 18.592-24.704 33.856-30.048 15.328-5.248 40.48-7.872 75.648-7.872 29.664 0 52.096 1.856 67.456 5.664 15.264 3.84 27.136 10.432 35.392 19.84 7.296 8.32 12.16 18.496 14.56 30.56s3.616 32.128 3.616 60.128v122.464h-33.92v-110.848c0-24.32-0.768-41.312-2.272-50.72a54.304 54.304 0 0 0-9.824-24.192c-5.44-7.392-14.176-12.704-26.272-15.744-12-3.072-29.728-4.608-53.024-4.608-26.144 0-46.624 2.048-61.344 6.112s-25.792 10.592-33.248 19.776a53.728 53.728 0 0 0-10.912 23.168c-1.632 8.48-2.496 23.84-2.496 46.208v110.848h-33.92V653.088z m-89.728 254.4h34.688c-0.448 28.576-6.4 49.44-17.888 62.496-8.384 9.6-19.584 16.224-33.664 19.968-14.176 3.712-35.168 5.568-62.976 5.568-37.184 0-64.672-1.536-82.592-4.48-17.792-2.944-31.52-8.32-41.024-16.128-20.992-17.376-31.52-50.592-31.52-99.648 0-34.592 4.576-60.544 13.632-77.952 8.896-16.992 21.76-28.416 38.592-34.432 16.736-6.016 44.288-9.056 82.56-9.056 34.464 0 60.064 1.92 76.8 5.824 16.832 3.84 29.568 10.688 38.336 20.448 6.208 6.976 10.688 15.008 13.536 24.16 2.784 9.184 4.512 21.376 5.024 36.544h-35.52c-0.448-22.208-7.136-36.8-19.904-43.84s-38.848-10.624-78.336-10.624c-38.752 0-64.032 4.352-75.968 12.96-7.904 5.632-13.568 14.72-17.12 27.264s-5.344 29.664-5.344 51.488c0 20.512 2.208 36.8 6.432 48.672 4.352 11.872 11.168 20.352 20.384 25.504 12.672 7.136 41.184 10.688 85.504 10.688 34.912 0 57.824-3.552 68.832-10.624 10.912-7.04 16.8-21.952 17.568-44.864z m-322.208-56.448h-201.056c1.728-23.84 7.904-40.352 18.592-49.44 6.496-5.728 15.584-9.6 27.104-11.808 11.616-2.304 28.416-3.424 50.496-3.424 25.28 0 44.448 1.184 57.568 3.68 13.088 2.368 23.2 6.624 30.496 12.704 11.072 9.152 16.64 25.184 16.832 48.256z m1.504 68.672c-0.96 11.936-3.68 20.608-7.872 25.76-5.664 6.624-14.112 11.2-25.376 13.728-11.392 2.432-29.216 3.712-53.6 3.712-32.224 0-55.456-1.344-69.76-4.064-14.272-2.784-24.736-7.872-31.232-15.328-9.664-10.944-14.944-31.136-15.84-60.48h239.808c-0.32-27.84-1.952-48.512-4.96-62.176a87.456 87.456 0 0 0-16.832-35.776c-9.824-12.192-22.976-20.544-39.456-24.864s-43.232-6.432-80.224-6.432c-38.72 0-66.4 2.944-82.944 8.8s-29.184 17.248-37.952 33.952c-9.184 17.536-13.856 43.744-13.856 78.688 0 49.856 10.912 83.296 32.672 100.192 9.536 7.296 23.616 12.416 42.304 15.488s46.016 4.576 82.016 4.576c43.52 0 74.048-5.568 91.616-16.768s26.592-30.88 27.168-59.008h-35.648zM51.168 653.088H402.88v39.68H248.16v299.712H206.816v-299.712H51.136v-39.68z m2774.4 332.896h20.896V659.52h-20.896v326.464z m-6.464-339.424h40.416v352.384h-46.944V646.56h6.528z m-228.512 232.48c10.464-0.288 22.4-0.384 35.904-0.384 19.168 0 35.36 0.64 48.448 2.016 13.376 1.408 23.648 3.52 30.72 6.432v-0.032c7.776 3.2 13.664 7.936 17.664 14.208 3.936 6.208 5.92 13.76 5.92 22.56 0 8.992-1.728 16.576-5.184 22.816a33.056 33.056 0 0 1-16.192 14.496c-6.432 2.848-16 4.992-28.576 6.304-12.288 1.312-27.584 1.952-45.792 1.952-24.864 0-44.672-0.576-59.424-1.664-15.424-1.184-25.664-3.104-30.816-5.76v-0.032a33.408 33.408 0 0 1-14.688-14.752 48.896 48.896 0 0 1-4.672-22.336c0-8.608 1.28-16.032 3.84-22.208a33.28 33.28 0 0 1 12.544-15.264l0.096-0.064c2.912-1.824 6.72-3.36 11.296-4.512 4.32-1.12 9.408-1.952 15.36-2.528 5.728-0.576 13.6-0.992 23.584-1.248z m35.872 12.544c-14.496 0-26.368 0.128-35.552 0.384h-0.032c-9.6 0.256-17.12 0.64-22.656 1.184a86.624 86.624 0 0 0-13.344 2.176 30.464 30.464 0 0 0-7.68 2.976 20.032 20.032 0 0 0-7.52 9.344c-1.888 4.48-2.816 10.272-2.816 17.248 0 6.72 1.088 12.192 3.232 16.512 2.016 3.968 5.056 7.04 9.12 9.152l0.032-0.032c3.552 1.824 12.128 3.264 25.792 4.32 14.272 1.088 33.76 1.632 58.432 1.632 17.952 0 32.8-0.64 44.416-1.888 11.296-1.184 19.552-2.944 24.704-5.248l0.032-0.064a20.544 20.544 0 0 0 10.112-8.928c2.336-4.192 3.52-9.696 3.52-16.512a28.832 28.832 0 0 0-3.872-15.68 23.456 23.456 0 0 0-11.552-9.088l-0.064-0.032c-5.888-2.432-14.976-4.256-27.136-5.504-12.48-1.28-28.192-1.92-47.136-1.92z m-116.48-70.464h22.752a47.36 47.36 0 0 1 4.736-19.616 30.944 30.944 0 0 1 15.328-14.4v-0.032c5.952-2.656 15.264-4.576 27.936-5.856 12.224-1.184 27.584-1.824 46.016-1.824 14.08 0 26.304 0.384 36.608 1.12 10.368 0.768 18.848 1.92 25.344 3.456 6.816 1.6 12.864 3.968 18.016 7.04 5.312 3.232 9.792 7.232 13.344 12.032h-0.032c3.904 5.312 6.848 12.16 8.736 20.576 1.856 8.032 2.752 17.472 2.752 28.288v31.872h-12.896l-1.92-2.88a41.92 41.92 0 0 0-27.456-18.24c-13.12-2.784-41.568-4.16-85.312-4.16-20.992 0-38.048 0.64-51.136 1.984-12.64 1.28-21.568 3.136-26.56 5.536l-0.192 0.096a40.192 40.192 0 0 0-11.68 7.744c-3.2 3.04-5.76 6.688-7.648 10.784v0.032c-1.984 4.416-3.52 9.824-4.512 16.192v0.032a151.36 151.36 0 0 0-1.568 23.136c0 7.296 0.384 13.696 1.024 19.072 0.672 5.28 1.696 9.824 3.04 13.568 1.248 3.52 3.008 6.816 5.216 9.824 2.24 3.04 5.12 5.888 8.448 8.512l0.16 0.16c3.168 2.688 7.232 4.96 12.064 6.72 5.088 1.92 11.104 3.36 17.952 4.288 7.168 0.928 17.248 1.664 30.24 2.176 12.576 0.48 28.384 0.704 47.392 0.704 16.32 0 29.984-0.448 40.96-1.376 10.72-0.896 18.784-2.208 24.256-3.936h0.032c5.152-1.632 9.952-4.224 14.368-7.84 4.576-3.712 8.768-8.576 12.64-14.496l1.888-2.944h12.032l-0.128 6.656-0.544 20.896h20.768v-117.664c0-14.144-0.288-25.984-0.864-35.488a169.824 169.824 0 0 0-2.432-22.464 55.04 55.04 0 0 0-13.184-26.336l-0.032-0.064a56.32 56.32 0 0 0-14.528-11.552 75.264 75.264 0 0 0-19.744-7.296h-0.032a211.68 211.68 0 0 0-30.784-3.968 667.52 667.52 0 0 0-46.752-1.376c-23.072 0-42.368 1.088-57.888 3.264-15.136 2.144-26.656 5.312-34.368 9.408-7.296 3.84-12.704 9.344-16.32 16.544-3.744 7.488-5.664 16.896-5.664 28.288l0.096 3.776z m29.312 12.96h-41.504l-0.384-6.08-0.352-5.792v-0.128a107.84 107.84 0 0 1-0.128-4.704c0-13.344 2.336-24.704 7.04-34.08 4.832-9.632 12.128-17.056 21.792-22.144 9.152-4.864 22.112-8.48 38.72-10.848a439.456 439.456 0 0 1 59.68-3.456c18.368 0 34.304 0.448 47.648 1.408 13.472 0.928 24.416 2.4 32.768 4.256 8.608 1.952 16.32 4.864 23.136 8.608a68.16 68.16 0 0 1 28.256 29.184h0.032c2.688 5.408 4.704 11.264 5.952 17.504 1.184 5.92 2.048 13.984 2.624 24.256 0.608 10.112 0.928 22.208 0.928 36.224v130.656H2718.4l0.192-6.624 0.256-10.816a55.776 55.776 0 0 1-23.456 14.56c-6.4 2.048-15.456 3.488-27.136 4.48-11.392 0.928-25.408 1.408-42.048 1.408-18.432 0-34.368-0.256-47.872-0.768-13.408-0.48-23.936-1.28-31.52-2.272h-0.064a96.896 96.896 0 0 1-20.672-4.992 52 52 0 0 1-15.744-8.8 57.6 57.6 0 0 1-10.816-11.008v-0.032a51.136 51.136 0 0 1-7.104-13.184 77.376 77.376 0 0 1-3.584-16.256 168.8 168.8 0 0 1-1.184-20.672c0-9.344 0.64-17.76 1.792-25.184 1.184-7.616 3.04-14.144 5.44-19.488l0.032-0.032c2.592-5.6 6.08-10.56 10.432-14.752a54.08 54.08 0 0 1 15.264-10.144c6.432-3.072 16.736-5.376 30.912-6.784 13.76-1.408 31.264-2.112 52.448-2.112 44.544 0 73.856 1.504 88 4.48a57.856 57.856 0 0 1 26.592 13.216v-11.328c0-10.016-0.768-18.496-2.368-25.472a42.816 42.816 0 0 0-6.528-15.744h-0.032a32.096 32.096 0 0 0-9.568-8.576 50.272 50.272 0 0 0-14.24-5.568h-0.064a151.392 151.392 0 0 0-23.296-3.168 508.416 508.416 0 0 0-35.68-1.088c-18.304 0-33.248 0.608-44.768 1.728-11.168 1.12-19.136 2.752-23.936 4.864a18.24 18.24 0 0 0-9.056 8.48c-2.24 4.256-3.296 9.888-3.296 16.864h-0.032l0.032 1.12v0.032l0.032 2.048 0.128 6.592h-6.592z m-127.36-14.496c3.008 8.704 4.576 19.2 4.64 31.424l0.032 6.496h-214.528l0.512-6.944c0.896-12.48 3.008-23.2 6.304-32.064 3.488-9.248 8.32-16.544 14.464-21.792a50.88 50.88 0 0 1 13.344-8.256c4.96-2.176 10.56-3.808 16.8-4.992v-0.032a192.32 192.32 0 0 1 22.144-2.656 583.104 583.104 0 0 1 63.328 0.032c9.856 0.576 18.176 1.6 25.024 2.88 7.04 1.28 13.312 3.072 18.72 5.312 5.664 2.368 10.56 5.312 14.72 8.8h0.032c6.432 5.312 11.264 12.576 14.464 21.76z m-8.512 24.928a76.672 76.672 0 0 0-3.776-20.736 35.52 35.52 0 0 0-10.496-16.064l-0.032-0.032a43.712 43.712 0 0 0-11.392-6.72h-0.032a79.04 79.04 0 0 0-16.032-4.576H2361.6c-6.272-1.152-14.08-2.048-23.424-2.656s-20.288-0.864-32.96-0.864c-10.976 0-20.544 0.288-28.704 0.8s-14.976 1.376-20.512 2.432h-0.032a64.128 64.128 0 0 0-14.08 4.192 36.832 36.832 0 0 0-9.984 6.112l-0.064 0.064c-4.48 3.808-8.096 9.344-10.784 16.512-2.24 6.016-3.904 13.216-4.896 21.536h187.232z m37.088 81.664h-23.008a70.656 70.656 0 0 1-2.368 10.752 37.696 37.696 0 0 1-6.304 12.64l-0.128 0.128a42.464 42.464 0 0 1-12.384 9.856 63.872 63.872 0 0 1-16.512 5.984l-0.064 0.032a167.584 167.584 0 0 1-22.944 2.944h-0.064c-9.152 0.64-19.776 0.928-31.968 0.928-16.032 0-30.08-0.352-41.984-1.024s-21.6-1.76-28.992-3.2h-0.064a79.68 79.68 0 0 1-20.096-6.464H2233.6a47.168 47.168 0 0 1-14.688-10.944c-5.536-6.272-9.76-14.912-12.64-25.984a176.864 176.864 0 0 1-4.864-38.528l-0.224-6.72h239.936c-0.224-10.88-0.672-20.672-1.376-29.376a185.472 185.472 0 0 0-3.296-24.896c-1.408-6.272-3.424-12.192-5.984-17.728s-5.792-10.656-9.6-15.456v-0.032c-4.448-5.504-9.696-10.144-15.648-13.92s-12.8-6.688-20.384-8.672a185.504 185.504 0 0 0-31.232-4.64c-13.152-1.056-28.96-1.6-47.328-1.6-19.232 0-35.584 0.768-49.024 2.176-13.344 1.408-23.968 3.52-31.808 6.272a59.264 59.264 0 0 0-19.68 11.584 68.8 68.8 0 0 0-14.688 19.232 107.296 107.296 0 0 0-9.696 31.04c-2.24 12.672-3.36 27.584-3.36 44.672 0 24.256 2.624 44.416 7.84 60.448 5.024 15.424 12.448 27.008 22.304 34.624 4.192 3.2 9.536 6.016 16 8.384 6.688 2.432 14.432 4.416 23.36 5.856 9.056 1.472 20.352 2.624 33.792 3.36 13.344 0.736 29.056 1.12 47.136 1.12 21.472 0 39.616-1.344 54.368-4.064 14.432-2.656 25.696-6.528 33.792-11.648h-0.032a47.04 47.04 0 0 0 17.536-20.384c3.424-7.488 5.568-16.384 6.368-26.752z m-28.864-12.96h42.24l-0.128 6.624c-0.32 14.976-2.944 27.808-7.84 38.432a59.616 59.616 0 0 1-22.304 25.92h-0.032c-9.504 6.048-22.304 10.592-38.4 13.504-15.744 2.88-34.624 4.32-56.704 4.32-17.92 0-33.888-0.384-47.872-1.184-13.888-0.736-25.6-1.92-35.168-3.488a136.576 136.576 0 0 1-25.792-6.464 74.016 74.016 0 0 1-19.424-10.304h-0.032c-11.904-9.28-20.832-22.912-26.688-40.832-5.664-17.376-8.512-38.848-8.512-64.448 0-17.792 1.184-33.408 3.584-46.912 2.4-13.76 6.112-25.376 11.04-34.784 4.768-9.056 10.592-16.736 17.504-22.88 6.944-6.24 14.976-10.944 24-14.144 8.8-3.136 20.352-5.44 34.752-6.976 14.112-1.472 30.912-2.272 50.4-2.272 18.624 0 34.752 0.576 48.32 1.664 13.728 1.12 24.96 2.784 33.536 5.056 8.864 2.304 16.864 5.728 24 10.208 7.2 4.512 13.504 10.144 18.88 16.832l0.064 0.032a94.336 94.336 0 0 1 17.984 38.4c1.632 7.232 2.848 16.128 3.648 26.656 0.864 10.304 1.312 22.624 1.472 36.864l0.096 6.528h-239.584c0.672 11.296 2.048 20.992 4.16 29.056 2.368 9.088 5.664 16 9.792 20.672l0.064 0.032c2.656 3.104 6.24 5.728 10.656 7.872v0.032c4.64 2.272 10.304 4.032 16.896 5.344 6.848 1.312 15.968 2.272 27.264 2.944h0.032c11.296 0.64 25.056 0.96 41.216 0.96 12.096 0 22.432-0.288 31.104-0.896s15.744-1.504 21.12-2.688c5.056-1.152 9.408-2.72 13.088-4.704a30.592 30.592 0 0 0 8.64-6.784h-0.032a24.224 24.224 0 0 0 4-8.256c1.184-3.808 2.016-8.512 2.496-14.048l0.512-5.952h5.952z m-454.4-84.224H1799.04v-142.72h158.208c18.112 0 33.792 0.224 47.072 0.576 13.12 0.384 23.136 0.96 30.048 1.696h0.032c7.232 0.768 13.536 2.08 18.88 3.84 5.664 1.824 10.4 4.256 14.176 7.264 6.016 4.64 10.464 11.872 13.344 21.536 2.656 9.024 4 20.256 4 33.76 0 15.488-1.408 28.256-4.224 38.272-3.04 10.816-7.84 18.592-14.368 23.36l-0.128 0.096c-4.096 2.816-8.704 5.12-13.92 6.848h-0.032a78.336 78.336 0 0 1-16.768 3.584c-5.728 0.64-15.264 1.152-28.416 1.44-13.632 0.32-30.208 0.448-49.728 0.448z m-145.184-12.992h145.184c20.736 0 37.248-0.128 49.44-0.384 12.64-0.32 21.76-0.768 27.296-1.408a70.4 70.4 0 0 0 14.048-2.976c4.064-1.344 7.648-3.136 10.72-5.248v0.032c3.968-2.976 7.136-8.416 9.344-16.288h0.032c2.464-8.8 3.68-20.384 3.68-34.784 0-12.32-1.152-22.368-3.424-30.08v-0.032c-2.08-7.04-5.024-12.064-8.864-15.008l-0.032-0.032a33.152 33.152 0 0 0-10.176-5.088 84.224 84.224 0 0 0-16.352-3.264c-6.688-0.704-16.352-1.28-28.96-1.664-12.064-0.32-27.68-0.512-46.752-0.512h-145.184v116.768z m253.536 87.552z m-294.88-244v326.464h28.32v-130.24h158.24l41.44 0.288c10.368 0.096 17.056 0.192 19.968 0.32h0.032c3.168 0.128 6.464 0.384 9.952 0.768 3.584 0.384 7.264 0.864 11.008 1.408l0.256 0.032c11.072 2.144 19.904 6.848 26.4 14.208 6.432 7.264 10.464 16.928 12.128 28.992l0.032 0.224c0.576 5.408 0.96 13.024 1.248 22.752 0.288 10.144 0.416 21.888 0.416 35.232v25.984h28.352v-41.696c0-14.336-0.224-26.048-0.64-35.136a193.088 193.088 0 0 0-1.728-20.832h-0.032a43.872 43.872 0 0 0-9.792-21.568l-0.032 0.032a43.744 43.744 0 0 0-12.128-9.472 56.64 56.64 0 0 0-16.032-5.408l-30.592-5.632 30.304-7.04c8-1.856 14.912-4.352 20.704-7.52a44.48 44.48 0 0 0 13.472-10.944l0.064-0.032c2.112-2.56 3.936-5.6 5.44-9.088a64.64 64.64 0 0 0 3.712-12.544c0.928-4.832 1.632-10.88 2.112-18.112 0.448-7.168 0.704-15.616 0.704-25.344 0-12.704-0.8-23.936-2.336-33.536a100.512 100.512 0 0 0-6.816-24.352v0.032a56.192 56.192 0 0 0-18.528-23.04 65.984 65.984 0 0 0-29.6-11.072h-0.064c-7.104-1.056-18.912-1.92-35.296-2.656a2486.112 2486.112 0 0 0-64.16-1.568v0.032h-186.528z m-13.024 332.928v-345.92l199.648 0.032c26.4 0.384 47.936 0.896 64.576 1.568 17.056 0.704 29.312 1.632 36.704 2.752 13.792 1.952 25.568 6.4 35.264 13.312 9.824 7.008 17.44 16.448 22.848 28.224v0.064c3.456 7.744 6.08 16.928 7.776 27.584 1.728 10.496 2.528 22.368 2.528 35.584 0 9.728-0.256 18.464-0.736 26.144-0.512 7.776-1.28 14.368-2.304 19.776v0.064a76.736 76.736 0 0 1-4.544 15.104 50.08 50.08 0 0 1-7.296 12.16 57.184 57.184 0 0 1-17.376 14.208c-1.6 0.896-3.296 1.728-5.024 2.496l0.512 0.288v0.032c5.984 3.2 11.264 7.296 15.712 12.192l0.128 0.16c3.296 3.904 6.048 8.224 8.192 12.864s3.68 9.664 4.64 14.944v0.064c0.832 5.088 1.504 12.608 1.92 22.432s0.672 21.792 0.672 35.712v54.656h-54.368V960c0-14.304-0.128-25.952-0.384-34.88a320 320 0 0 0-1.184-21.6c-1.312-9.44-4.352-16.864-9.056-22.176a32.352 32.352 0 0 0-18.752-10.016 268.32 268.32 0 0 0-10.496-1.376 127.584 127.584 0 0 0-9.12-0.704 812.8 812.8 0 0 0-19.52-0.32c-10.208-0.128-24-0.192-41.376-0.288v0.032h-145.184v130.272h-54.368v-6.496z m-68.576-6.496v-25.728h-302.4l0.064-6.528c0.096-13.696 0.48-24.896 1.184-33.504 0.736-9.152 1.92-16 3.424-20.512h0.032c1.984-6.016 4.896-11.264 8.672-15.52l-0.032-0.032c3.84-4.352 8.544-7.84 14.08-10.336 5.152-2.368 11.808-4.32 20.032-5.824 7.936-1.44 17.344-2.496 28.096-3.2h0.096c27.168-1.472 51.808-2.976 73.824-4.576a1839.2 1839.2 0 0 0 56.48-4.8h0.032a290.88 290.88 0 0 0 26.496-3.712c7.552-1.408 13.984-3.072 19.392-4.992h0.032c5.216-1.824 10.144-4.096 14.688-6.816 4.544-2.688 8.672-5.824 12.512-9.408a59.328 59.328 0 0 0 16.256-26.944v-0.032c1.6-5.408 2.784-11.904 3.584-19.584 0.832-7.744 1.216-16.768 1.216-27.008 0-12.192-0.576-22.784-1.728-31.68a95.36 95.36 0 0 0-5.12-21.984v-0.032a57.344 57.344 0 0 0-17.76-24.256 61.216 61.216 0 0 0-13.248-8.192l-0.032-0.032a62.4 62.4 0 0 0-15.264-4.672l-0.16-0.064c-4.672-0.928-11.52-1.888-20.48-2.752s-20.288-1.664-33.792-2.432h-0.032a1336.768 1336.768 0 0 0-72.768-2.368 758.4 758.4 0 0 0-43.264 1.152c-12.992 0.8-24.64 1.984-34.912 3.488-6.592 1.024-12.608 2.4-17.952 4.064s-10.144 3.712-14.176 5.952c-4.032 2.272-7.84 5.056-11.328 8.32s-6.752 7.04-9.792 11.296a64.896 64.896 0 0 0-6.784 13.184 82.144 82.144 0 0 0-4.128 15.616v0.032a213.44 213.44 0 0 0-2.176 23.776 798.72 798.72 0 0 0-0.672 30.976h26.336c0.096-9.856 0.224-18.016 0.416-24.48 0.256-8.16 0.64-13.856 1.12-17.056a69.76 69.76 0 0 1 3.328-14.72v-0.032a38.08 38.08 0 0 1 16.16-20.48c3.712-2.304 7.968-4.192 12.704-5.536v-0.032a113.6 113.6 0 0 1 16.704-3.232c7.04-0.96 15.616-1.824 25.632-2.624 9.856-0.768 20-1.408 30.368-1.76h0.032c10.464-0.416 20.608-0.64 30.368-0.64 29.216 0 53.12 1.024 71.648 3.104 19.072 2.112 32.704 5.408 40.8 9.856l0.032 0.032c8.576 4.736 14.976 12.736 19.104 23.904 3.84 10.368 5.792 23.616 5.792 39.68 0 7.456-0.512 14.272-1.472 20.352a66.272 66.272 0 0 1-4.736 16.352c-2.24 4.896-5.152 9.216-8.768 12.896a45.376 45.376 0 0 1-12.736 9.024 69.728 69.728 0 0 1-14.176 5.024c-5.312 1.376-11.456 2.56-18.368 3.456h-0.032c-7.072 0.896-16.736 1.824-28.864 2.816-11.776 0.896-26.528 1.92-44.288 2.976-28.384 1.856-51.008 3.52-67.744 5.024-16.896 1.504-28.48 2.848-34.592 4.064a154.88 154.88 0 0 0-21.344 5.984v0.032c-6.112 2.272-11.328 4.8-15.584 7.584-4.128 2.72-7.968 6.08-11.296 10.048-3.392 3.968-6.4 8.576-8.928 13.824-3.264 6.688-5.728 16.064-7.392 28.192-1.728 12.416-2.592 27.68-2.592 45.728 0 6.496 0.064 12.64 0.224 18.24 0.128 3.904 0.224 7.872 0.416 12.032h329.664z m13.056-32.192v45.184H1347.168l-0.352-6.176a673.248 673.248 0 0 1-1.024-37.056c0-18.528 0.928-34.4 2.752-47.488 1.856-13.472 4.768-24.16 8.608-32.032 3.04-6.208 6.624-11.744 10.72-16.576 4.128-4.832 8.896-9.056 14.112-12.48 5.184-3.392 11.264-6.368 18.176-8.928v0.064c6.848-2.528 14.656-4.736 23.264-6.528h0.064c6.56-1.344 18.624-2.784 36.032-4.288 17.632-1.6 40.32-3.264 68.032-5.088h0.032a2227.2 2227.2 0 0 0 44.032-2.976c12.48-0.992 21.888-1.92 28.192-2.688v-0.032c6.368-0.832 12.032-1.92 16.832-3.136 4.64-1.184 8.576-2.592 11.68-4.128l0.064-0.064a31.52 31.52 0 0 0 9.152-6.4l0.032-0.032a31.168 31.168 0 0 0 6.144-9.088l0.032-0.096a50.88 50.88 0 0 0 3.744-13.088c0.896-5.248 1.312-11.36 1.312-18.304 0-14.528-1.664-26.304-4.992-35.232-3.008-8.128-7.424-13.824-13.152-17.024-6.592-3.616-18.624-6.432-35.968-8.32-17.888-1.984-41.312-2.976-70.208-2.976a747.264 747.264 0 0 0-59.744 2.336 465.6 465.6 0 0 0-24.896 2.496c-6.4 0.896-11.296 1.856-14.688 2.88h-0.096a39.36 39.36 0 0 0-9.504 4.064v0.032c-2.592 1.632-4.768 3.52-6.464 5.728s-3.168 4.896-4.352 8.192a57.472 57.472 0 0 0-2.688 12l-0.032 0.16a151.552 151.552 0 0 0-0.992 15.648c-0.256 7.872-0.416 18.08-0.48 30.592l-0.064 6.496h-52.192v-6.528c0-14.528 0.256-27.264 0.736-38.016 0.48-10.624 1.248-19.072 2.272-25.28 1.024-6.464 2.656-12.544 4.8-18.112 2.176-5.76 4.928-11.104 8.224-15.936l0.064-0.064c3.52-5.024 7.392-9.504 11.616-13.408s8.8-7.296 13.76-10.08l0.064-0.032c4.928-2.72 10.464-5.12 16.64-7.04 5.984-1.888 12.64-3.392 19.904-4.48 10.528-1.6 22.56-2.816 36.096-3.616 13.408-0.8 28.096-1.216 44.032-1.216 10.496 0 22.112 0.224 34.848 0.64a1475.968 1475.968 0 0 1 72.992 4.288c9.312 0.896 16.576 1.888 21.664 2.944v-0.032c6.528 1.152 12.64 3.008 18.432 5.632a75.424 75.424 0 0 1 28.96 23.456c3.616 4.96 6.592 10.368 8.8 16.192v0.032c2.624 6.784 4.576 15.136 5.824 24.928 1.28 9.728 1.888 20.864 1.888 33.344 0 10.432-0.416 19.904-1.344 28.288-0.896 8.512-2.24 15.84-4.032 21.952h-0.032a73.152 73.152 0 0 1-19.776 32.672l-0.064 0.064c-4.448 4.224-9.408 7.904-14.688 11.072s-11.008 5.792-17.12 7.936a141.92 141.92 0 0 1-21.312 5.504c-8.032 1.504-17.248 2.816-27.616 3.84-16.256 1.696-35.232 3.296-56.864 4.864-21.472 1.568-46.144 3.104-74.016 4.576a227.424 227.424 0 0 0-26.56 3.04c-7.04 1.28-12.768 2.912-16.96 4.864l-0.064 0.032a27.584 27.584 0 0 0-9.6 7.04h-0.032a32.16 32.16 0 0 0-6.176 11.104v0.064c-1.184 3.456-2.112 9.28-2.752 17.44-0.608 7.136-0.96 15.84-1.152 26.016h302.4v6.464z m-651.584-294.24h-20.864v326.464h20.864v-104.352c0-11.04 0.256-20.576 0.672-28.544 0.416-8.064 1.088-14.4 1.984-18.912v-0.032c0.928-4.736 2.464-9.28 4.512-13.632s4.64-8.48 7.712-12.32v-0.032c4.192-5.184 9.44-9.6 15.584-13.28 6.048-3.584 13.056-6.464 20.992-8.64 7.648-2.144 16.864-3.712 27.456-4.768 10.528-1.056 22.4-1.568 35.584-1.568 11.808 0 22.304 0.384 31.328 1.152 9.216 0.768 17.024 1.984 23.328 3.616 6.592 1.664 12.384 3.968 17.312 6.944 5.12 3.072 9.312 6.848 12.576 11.232 2.784 3.712 5.152 7.936 7.008 12.512 1.792 4.448 3.136 9.312 3.968 14.496v0.032c0.8 4.992 1.408 11.904 1.76 20.608 0.416 8.832 0.608 19.232 0.608 31.104v104.352h20.896v-115.968c0-13.952-0.32-25.824-0.896-35.52s-1.44-17.536-2.624-23.392c-1.088-5.472-2.752-10.528-4.896-15.104s-4.896-8.704-8.16-12.416l0.032-0.032a50.176 50.176 0 0 0-13.376-10.624v0.032a73.344 73.344 0 0 0-18.72-7.2 173.568 173.568 0 0 0-27.296-4.128 480.608 480.608 0 0 0-38.592-1.408c-17.44 0-32.352 0.64-44.608 1.92a136.384 136.384 0 0 0-28.96 5.6c-6.752 2.368-12.672 5.792-17.696 10.24s-9.152 9.984-12.416 16.512l-1.792 3.616h-13.248v-138.656z m-27.424-12.992h40.416v127.712a63.008 63.008 0 0 1 27.936-18.688l0.032-0.032c8.096-2.72 18.688-4.864 31.84-6.208 12.896-1.344 28.256-2.048 45.92-2.048 14.976 0 28.192 0.512 39.648 1.44 11.584 0.96 21.376 2.464 29.376 4.448 8.16 2.048 15.52 4.896 21.952 8.48v0.032c6.528 3.68 12.16 8.128 16.768 13.408h0.032c4.032 4.608 7.392 9.76 10.08 15.36v0.032c2.656 5.536 4.64 11.616 5.952 18.144 1.248 6.304 2.208 14.72 2.816 25.088 0.608 10.304 0.928 22.4 0.928 36.288v128.928H1249.92V881.6c0-12.32-0.16-22.528-0.544-30.56a187.424 187.424 0 0 0-1.6-19.136 52.16 52.16 0 0 0-3.232-11.68v-0.032a41.088 41.088 0 0 0-5.44-9.6v-0.064a30.528 30.528 0 0 0-8.832-7.808 50.016 50.016 0 0 0-13.792-5.504 137.184 137.184 0 0 0-21.248-3.232 360 360 0 0 0-30.208-1.12c-12.992 0-24.48 0.48-34.336 1.44s-18.272 2.464-25.28 4.384a72.704 72.704 0 0 0-17.728 7.296 42.56 42.56 0 0 0-12.128 10.272c-2.528 3.136-4.544 6.336-6.144 9.664s-2.752 6.912-3.488 10.688h-0.032a139.296 139.296 0 0 0-1.728 17.088c-0.416 7.328-0.64 16.64-0.64 27.872v117.344h-46.944V646.528h6.496z m-61.728 267.456h-21.856a85.6 85.6 0 0 1-5.056 24.192c-3.456 8.832-8.48 15.328-15.168 19.616-6.24 3.968-15.584 6.976-27.968 8.864v0.032a299.04 299.04 0 0 1-44.352 2.72c-22.4 0-40.896-0.896-55.36-2.72-15.104-1.888-26.208-4.8-33.28-8.8a46.848 46.848 0 0 1-13.952-11.904 60.032 60.032 0 0 1-9.344-17.056l-0.032-0.032a112 112 0 0 1-5.152-22.496 213.056 213.056 0 0 1-1.696-28.352c0-11.008 0.48-20.96 1.408-29.856 0.928-8.96 2.336-16.768 4.192-23.392 1.984-6.848 4.512-12.832 7.68-17.888h0.032c3.328-5.248 7.296-9.568 11.904-12.832 6.784-4.896 16.992-8.544 30.624-10.88 13.056-2.208 29.44-3.328 49.152-3.328 19.904 0 36.576 0.896 50.016 2.72 13.824 1.888 24.32 4.768 31.424 8.672 7.68 4.224 13.472 10.624 17.408 19.264 2.976 6.592 4.864 14.528 5.536 23.776h22.56a181.76 181.76 0 0 0-1.28-13.152 96.064 96.064 0 0 0-3.104-15.008l-0.032 0.032c-1.312-4.224-3.008-8.128-4.992-11.712s-4.384-7.008-7.2-10.112a53.12 53.12 0 0 0-14.432-11.072 81.984 81.984 0 0 0-20.512-7.328h-0.064a203.84 203.84 0 0 0-30.752-4.224 613.856 613.856 0 0 0-44.576-1.44c-18.944 0-35.136 0.768-48.576 2.24-13.312 1.44-23.936 3.584-31.808 6.432-7.552 2.72-14.272 6.688-20.096 11.872s-10.784 11.68-14.848 19.456v0.032a104.576 104.576 0 0 0-9.6 30.656 259.296 259.296 0 0 0-3.328 44.288c0 23.84 2.528 43.744 7.584 59.744v0.032c4.864 15.392 12.064 27.008 21.536 34.912 4.224 3.456 9.44 6.4 15.68 8.832 6.4 2.496 13.856 4.48 22.304 5.888 8.768 1.44 19.904 2.56 33.44 3.264 13.408 0.736 29.44 1.12 48.096 1.12 13.92 0 25.92-0.448 36-1.344s18.496-2.24 25.28-4.032c6.464-1.696 12.256-4.064 17.344-7.072s9.44-6.592 13.12-10.816v-0.032c5.088-5.76 9.024-13.44 11.744-22.944 2.368-8.288 3.808-17.888 4.384-28.8z m-28-12.992h41.28l-0.096 6.56c-0.256 14.944-1.984 27.84-5.056 38.752a71.392 71.392 0 0 1-14.432 27.904 64.32 64.32 0 0 1-16.288 13.472 80.704 80.704 0 0 1-20.64 8.448 167.296 167.296 0 0 1-27.488 4.384c-10.88 0.96-23.232 1.44-37.088 1.44-18.432 0-34.688-0.384-48.736-1.152s-25.696-1.92-34.88-3.456a125.344 125.344 0 0 1-24.928-6.56 71.68 71.68 0 0 1-19.168-10.912l-0.032-0.032c-11.488-9.504-20.032-23.168-25.696-40.96-5.44-17.28-8.192-38.496-8.192-63.648 0-17.6 1.184-33.12 3.52-46.464 2.368-13.696 5.984-25.184 10.848-34.432l0.032-0.032c4.832-9.184 10.72-16.864 17.728-23.168 7.04-6.272 15.232-11.072 24.384-14.368 8.864-3.2 20.544-5.6 34.784-7.168 14.048-1.504 30.72-2.336 49.984-2.336 17.312 0 32.512 0.512 45.536 1.504 13.12 0.992 24.032 2.496 32.736 4.544 8.896 2.048 16.832 4.896 23.712 8.576 7.04 3.776 13.088 8.416 17.984 13.856v0.032a71.68 71.68 0 0 1 14.88 26.528v0.064c1.504 4.928 2.72 10.624 3.584 17.056 0.896 6.272 1.472 13.344 1.728 21.12l0.224 6.72h-48.64l-0.128-6.368c-0.192-10.144-1.792-18.528-4.768-25.056a27.424 27.424 0 0 0-11.808-13.216v-0.032c-5.664-3.136-14.656-5.536-26.944-7.2-12.64-1.696-28.768-2.56-48.256-2.56-19.04 0-34.688 1.056-46.976 3.136-11.648 1.984-20.064 4.864-25.216 8.576l-0.064 0.064a31.424 31.424 0 0 0-8.416 9.152 55.296 55.296 0 0 0-6.176 14.528 120.768 120.768 0 0 0-3.84 21.184c-0.832 8.224-1.28 17.76-1.28 28.544 0 10.08 0.544 18.976 1.536 26.688 0.992 7.616 2.528 14.208 4.512 19.84 1.888 5.216 4.352 9.696 7.296 13.376 2.848 3.616 6.272 6.528 10.144 8.672 5.6 3.168 15.136 5.536 28.512 7.232 13.984 1.76 31.904 2.624 53.824 2.624 17.12 0 31.232-0.864 42.336-2.56v0.032c10.592-1.664 18.24-3.968 22.976-7.04 4.288-2.752 7.648-7.264 10.08-13.44 2.624-6.784 4.16-15.52 4.512-26.208l0.224-6.272h6.24z m-320.416-81.44c3.04 8.704 4.608 19.2 4.64 31.424l0.064 6.496H403.2l0.48-6.944c0.896-12.48 3.04-23.2 6.336-32.064 3.488-9.248 8.32-16.544 14.464-21.792 3.744-3.296 8.192-6.016 13.312-8.256 4.96-2.176 10.592-3.808 16.832-4.992v-0.032c6.016-1.152 13.44-2.048 22.144-2.656a583.936 583.936 0 0 1 63.328 0.032c9.856 0.576 18.144 1.6 25.024 2.88 7.04 1.28 13.312 3.072 18.72 5.312 5.664 2.368 10.56 5.312 14.72 8.8 6.464 5.312 11.296 12.576 14.464 21.76z m-8.48 24.928a76.672 76.672 0 0 0-3.776-20.736 35.52 35.52 0 0 0-10.496-16.064l-0.032-0.032a44.8 44.8 0 0 0-11.392-6.72h-0.032a78.784 78.784 0 0 0-16.064-4.576h-0.032a207.008 207.008 0 0 0-23.456-2.656c-9.28-0.576-20.288-0.864-32.928-0.864-11.008 0-20.576 0.288-28.736 0.8s-14.976 1.376-20.512 2.432h-0.032a65.184 65.184 0 0 0-14.08 4.192 36.16 36.16 0 0 0-9.952 6.112l-0.064 0.064a38.976 38.976 0 0 0-10.784 16.512c-2.24 6.016-3.904 13.216-4.896 21.536h187.232z m37.024 81.664a78.432 78.432 0 0 1-6.336 26.72 47.36 47.36 0 0 1-17.536 20.416c-8.064 5.12-19.328 9.024-33.76 11.648-14.752 2.72-32.928 4.064-54.368 4.064-18.048 0-33.792-0.384-47.136-1.12-13.44-0.736-24.736-1.888-33.824-3.36a129.472 129.472 0 0 1-23.36-5.856 61.056 61.056 0 0 1-15.968-8.384c-9.824-7.616-17.28-19.2-22.336-34.624-5.184-16-7.84-36.192-7.84-60.448 0-17.088 1.152-32 3.36-44.672 2.208-12.512 5.44-22.88 9.696-31.04 4.032-7.648 8.928-14.112 14.688-19.232h0.032c5.664-5.056 12.224-8.928 19.68-11.584 7.84-2.72 18.432-4.864 31.776-6.272 13.44-1.408 29.824-2.176 48.992-2.176 18.4 0 34.144 0.544 47.328 1.6 13.024 1.024 23.456 2.592 31.264 4.64 7.584 1.984 14.4 4.896 20.416 8.672 5.952 3.744 11.2 8.416 15.648 13.952h0.032c3.744 4.736 6.912 9.888 9.504 15.392s4.64 11.456 6.016 17.76h-0.032c1.44 6.528 2.528 14.848 3.328 24.896 0.704 8.704 1.152 18.496 1.376 29.376h-239.936l0.224 6.72c0.448 15.168 2.08 28.032 4.864 38.528 2.88 11.136 7.104 19.776 12.576 25.984l0.032-0.032c3.84 4.384 8.768 8.064 14.72 10.976h0.032c5.728 2.816 12.448 4.992 20.096 6.464h0.064c7.424 1.408 17.088 2.464 28.992 3.2a697.824 697.824 0 0 0 73.952 0.096h0.032c9.28-0.672 16.96-1.664 22.944-2.944l0.064-0.032c6.24-1.408 11.712-3.392 16.48-5.984 4.896-2.656 9.056-5.952 12.416-9.856l0.128-0.128c2.624-3.264 4.736-7.488 6.336-12.64 0.96-3.2 1.76-6.784 2.304-10.752h23.008z m-28.832-12.96h-5.952l-0.512 5.952c-0.448 5.536-1.28 10.24-2.432 14.048a25.12 25.12 0 0 1-4.032 8.256h0.032a31.04 31.04 0 0 1-8.64 6.784 51.744 51.744 0 0 1-13.088 4.704c-5.44 1.152-12.48 2.048-21.12 2.688-8.608 0.576-19.008 0.896-31.104 0.896-16.128 0-29.888-0.352-41.216-0.96h-0.032a229.248 229.248 0 0 1-27.296-2.944 70.048 70.048 0 0 1-16.896-5.344l0.032-0.032a33.536 33.536 0 0 1-10.688-7.872l-0.032-0.032c-4.16-4.736-7.424-11.648-9.792-20.672a147.008 147.008 0 0 1-4.16-29.056h239.584l-0.064-6.528c-0.16-14.24-0.672-26.56-1.472-36.864a193.92 193.92 0 0 0-3.616-26.656h-0.032a94.944 94.944 0 0 0-18.048-38.4v-0.032c-5.376-6.688-11.712-12.32-18.88-16.832s-15.168-7.904-24.032-10.208a195.776 195.776 0 0 0-33.536-5.056 615.104 615.104 0 0 0-48.352-1.664c-19.456 0-36.224 0.8-50.4 2.272-14.368 1.536-25.952 3.84-34.688 6.976-9.12 3.2-17.12 7.904-24.064 14.144h0.032a79.552 79.552 0 0 0-17.504 22.88 121.216 121.216 0 0 0-11.04 34.784 273.344 273.344 0 0 0-3.584 46.912c0 25.6 2.816 47.072 8.512 64.448 5.856 17.952 14.752 31.584 26.688 40.832h0.032c5.28 4.032 11.776 7.488 19.424 10.304 7.392 2.72 16 4.896 25.76 6.464 9.6 1.568 21.344 2.752 35.2 3.488 13.952 0.8 29.92 1.184 47.84 1.184 22.08 0 40.96-1.44 56.704-4.32 16.096-2.944 28.864-7.456 38.368-13.504h0.032c9.824-6.272 17.248-14.912 22.336-25.92 4.896-10.624 7.52-23.424 7.808-38.432l0.128-6.624h-42.272z m-216.32-253.664H57.696v26.752h155.68v299.712h28.32v-299.712h154.72v-26.752z m-345.248-12.992h358.24v52.672H254.688v299.712H200.32v-299.712H44.64v-52.672h6.496zM6.624 388.736C364.192 153.088 888.352 4.32 1472.544 4.32c584.128 0 1108.256 148.768 1465.856 384.416 1.824 1.28 2.784 4.448 2.112 7.36-0.736 3.04-2.944 4.608-4.96 3.584-374.976-196.608-892-318.144-1462.976-318.144-571.04 0-1088.096 121.536-1463.072 318.144-2.016 1.024-4.192-0.544-4.928-3.584-0.672-2.944 0.224-6.08 2.08-7.36z m0.864 7.136z m662.56-287.36C415.904 175.168 190.88 272.48 9.088 392.32c-0.064 0.032-0.16 0.32-0.288 0.672a4.96 4.96 0 0 0-0.032 2.176v0.032c191.136-100.032 419.008-180.608 671.936-235.648 244.032-53.056 511.456-82.304 791.872-82.304 280.384 0 547.776 29.28 791.808 82.304 252.928 55.008 480.8 135.584 671.936 235.648v-0.032a4.928 4.928 0 0 0-0.064-2.176v-0.032c-0.128-0.384-0.192-0.64-0.256-0.64-181.824-119.84-406.848-217.184-660.928-283.808C2030.432 44.384 1758.72 8.64 1472.608 8.64c-286.176 0-557.92 35.712-802.528 99.872zM4.256 385.152c182.592-120.32 408.48-218.048 663.552-284.992 245.44-64.352 517.888-100.192 804.768-100.192 286.784 0 559.264 35.84 804.672 100.224 255.072 66.88 480.96 164.64 663.552 284.96l0.032 0.032a9.6 9.6 0 0 1 3.712 5.44 12.832 12.832 0 0 1 0.192 6.432l-0.032 0.096a12.704 12.704 0 0 1-0.96 2.624 9.184 9.184 0 0 1-3.296 3.584 6.976 6.976 0 0 1-6.912 0.16h-0.032c-190.688-99.968-418.24-180.544-670.944-235.488-243.456-52.928-510.24-82.112-789.984-82.112-279.84 0-546.624 29.184-790.048 82.112C429.728 222.976 202.208 303.552 11.52 403.52l-0.032 0.032a7.36 7.36 0 0 1-1.6 0.576 6.848 6.848 0 0 1-5.312-0.8 9.504 9.504 0 0 1-3.264-3.552l0.032-0.032a10.624 10.624 0 0 1-0.992-2.624v-0.032a13.216 13.216 0 0 1 0.128-6.432v-0.064a9.92 9.92 0 0 1 3.712-5.408l0.064-0.032z" fill="#1296db" p-id="4327"></path></svg>